# xmcd
#
# Track frame offsets:
# 150
# 12446
# 23987
# 36256
# 49254
# 61173
# 75899
# 93297
# 105566
# 123072
# 136070
# 147989
# 161932
# 175967
# 197333
# 212896
# 229295
# 244642
# 260717
# 275632
#
# Disc length: 3839 seconds
#
#
# Revision: 2
# Processed by: cddbd v1.5.1PL2 Copyright (c) Steve Scherf et al.
# Submitted via: FreeRIP 2.944 
#
DISCID=150efd14
DTITLE=Tonico and Tinoco - As 20 Mais
DYEAR=2003
DGENRE=Country
TTITLE0=Moreninha Linda
TTITLE1=Cana Verde
TTITLE2=Destinos Iguais
TTITLE3=Adeus Morena Adeus
TTITLE4=Curitibana
TTITLE5=Chico Mineiro
TTITLE6=Tristeza do Jeca
TTITLE7=Saudade do Matao
TTITLE8=Besta Ruana
TTITLE9=Marca da Ferradura
TTITLE10=Aparecida do Norte
TTITLE11=Moda da Mula Preta
TTITLE12=Canoeiro
TTITLE13=Lembranca
TTITLE14=Porque
TTITLE15=Luar do Sertao
TTITLE16=Pe de Ipe
TTITLE17=Cavalo Zaino
TTITLE18=Vinganca do Chico Mineiro
TTITLE19=Brasil Caboclo
EXTD=
EXTT0=
EXTT1=
EXTT2=
EXTT3=
EXTT4=
EXTT5=
EXTT6=
EXTT7=
EXTT8=
EXTT9=
EXTT10=
EXTT11=
EXTT12=
EXTT13=
EXTT14=
EXTT15=
EXTT16=
EXTT17=
EXTT18=
EXTT19=
PLAYORDER=
